<mxfile host="app.diagrams.net" agent="Mozilla/5.0 (Windows NT 10.0; Win64; x64) AppleWebKit/537.36 (KHTML, like Gecko) Chrome/131.0.0.0 Safari/537.36" version="25.0.3">
  <diagram name="หน้า-1" id="o4M-IWbFnHld75bNI6F5">
    <mxGraphModel dx="1050" dy="530" grid="1" gridSize="10" guides="1" tooltips="1" connect="1" arrows="1" fold="1" page="1" pageScale="1" pageWidth="827" pageHeight="1169" math="0" shadow="0">
      <root>
        <mxCell id="0" />
        <mxCell id="1" parent="0" />
        <mxCell id="Jz6pxkjxXAT42NqrhO4k-5" value="" style="edgeStyle=orthogonalEdgeStyle;rounded=0;orthogonalLoop=1;jettySize=auto;html=1;" edge="1" parent="1" source="Jz6pxkjxXAT42NqrhO4k-1" target="Jz6pxkjxXAT42NqrhO4k-4">
          <mxGeometry relative="1" as="geometry" />
        </mxCell>
        <mxCell id="Jz6pxkjxXAT42NqrhO4k-1" value="Start" style="ellipse;whiteSpace=wrap;html=1;" vertex="1" parent="1">
          <mxGeometry x="354" y="10" width="120" height="80" as="geometry" />
        </mxCell>
        <mxCell id="Jz6pxkjxXAT42NqrhO4k-16" value="" style="edgeStyle=orthogonalEdgeStyle;rounded=0;orthogonalLoop=1;jettySize=auto;html=1;" edge="1" parent="1" source="Jz6pxkjxXAT42NqrhO4k-4" target="Jz6pxkjxXAT42NqrhO4k-15">
          <mxGeometry relative="1" as="geometry" />
        </mxCell>
        <mxCell id="Jz6pxkjxXAT42NqrhO4k-4" value="Open file" style="whiteSpace=wrap;html=1;" vertex="1" parent="1">
          <mxGeometry x="354" y="180" width="120" height="60" as="geometry" />
        </mxCell>
        <mxCell id="Jz6pxkjxXAT42NqrhO4k-13" value="" style="edgeStyle=orthogonalEdgeStyle;rounded=0;orthogonalLoop=1;jettySize=auto;html=1;" edge="1" parent="1" source="Jz6pxkjxXAT42NqrhO4k-10" target="Jz6pxkjxXAT42NqrhO4k-12">
          <mxGeometry relative="1" as="geometry" />
        </mxCell>
        <mxCell id="Jz6pxkjxXAT42NqrhO4k-10" value="Input num" style="shape=parallelogram;perimeter=parallelogramPerimeter;whiteSpace=wrap;html=1;fixedSize=1;" vertex="1" parent="1">
          <mxGeometry x="354" y="460" width="120" height="60" as="geometry" />
        </mxCell>
        <mxCell id="Jz6pxkjxXAT42NqrhO4k-21" value="" style="edgeStyle=orthogonalEdgeStyle;rounded=0;orthogonalLoop=1;jettySize=auto;html=1;" edge="1" parent="1" source="Jz6pxkjxXAT42NqrhO4k-12" target="Jz6pxkjxXAT42NqrhO4k-20">
          <mxGeometry relative="1" as="geometry" />
        </mxCell>
        <mxCell id="Jz6pxkjxXAT42NqrhO4k-12" value="file + num" style="whiteSpace=wrap;html=1;" vertex="1" parent="1">
          <mxGeometry x="354" y="600" width="120" height="60" as="geometry" />
        </mxCell>
        <mxCell id="Jz6pxkjxXAT42NqrhO4k-17" value="T" style="edgeStyle=orthogonalEdgeStyle;rounded=0;orthogonalLoop=1;jettySize=auto;html=1;" edge="1" parent="1" source="Jz6pxkjxXAT42NqrhO4k-15" target="Jz6pxkjxXAT42NqrhO4k-10">
          <mxGeometry relative="1" as="geometry" />
        </mxCell>
        <mxCell id="Jz6pxkjxXAT42NqrhO4k-19" value="F" style="edgeStyle=orthogonalEdgeStyle;rounded=0;orthogonalLoop=1;jettySize=auto;html=1;" edge="1" parent="1" source="Jz6pxkjxXAT42NqrhO4k-15" target="Jz6pxkjxXAT42NqrhO4k-18">
          <mxGeometry relative="1" as="geometry" />
        </mxCell>
        <mxCell id="Jz6pxkjxXAT42NqrhO4k-15" value="file = number" style="rhombus;whiteSpace=wrap;html=1;" vertex="1" parent="1">
          <mxGeometry x="374" y="310" width="80" height="80" as="geometry" />
        </mxCell>
        <mxCell id="Jz6pxkjxXAT42NqrhO4k-18" value="Output Error" style="shape=parallelogram;perimeter=parallelogramPerimeter;whiteSpace=wrap;html=1;fixedSize=1;" vertex="1" parent="1">
          <mxGeometry x="514" y="320" width="120" height="60" as="geometry" />
        </mxCell>
        <mxCell id="Jz6pxkjxXAT42NqrhO4k-24" value="" style="edgeStyle=orthogonalEdgeStyle;rounded=0;orthogonalLoop=1;jettySize=auto;html=1;" edge="1" parent="1" source="Jz6pxkjxXAT42NqrhO4k-20" target="Jz6pxkjxXAT42NqrhO4k-23">
          <mxGeometry relative="1" as="geometry" />
        </mxCell>
        <mxCell id="Jz6pxkjxXAT42NqrhO4k-20" value="Output file + num" style="shape=parallelogram;perimeter=parallelogramPerimeter;whiteSpace=wrap;html=1;fixedSize=1;" vertex="1" parent="1">
          <mxGeometry x="354" y="740" width="120" height="60" as="geometry" />
        </mxCell>
        <mxCell id="Jz6pxkjxXAT42NqrhO4k-22" value="End" style="ellipse;whiteSpace=wrap;html=1;" vertex="1" parent="1">
          <mxGeometry x="354" y="1020" width="120" height="80" as="geometry" />
        </mxCell>
        <mxCell id="Jz6pxkjxXAT42NqrhO4k-26" value="" style="edgeStyle=orthogonalEdgeStyle;rounded=0;orthogonalLoop=1;jettySize=auto;html=1;" edge="1" parent="1" source="Jz6pxkjxXAT42NqrhO4k-23" target="Jz6pxkjxXAT42NqrhO4k-22">
          <mxGeometry relative="1" as="geometry" />
        </mxCell>
        <mxCell id="Jz6pxkjxXAT42NqrhO4k-23" value="" style="shape=waypoint;sketch=0;size=6;pointerEvents=1;points=[];fillColor=default;resizable=0;rotatable=0;perimeter=centerPerimeter;snapToPoint=1;" vertex="1" parent="1">
          <mxGeometry x="404" y="900" width="20" height="20" as="geometry" />
        </mxCell>
        <mxCell id="Jz6pxkjxXAT42NqrhO4k-25" style="edgeStyle=orthogonalEdgeStyle;rounded=0;orthogonalLoop=1;jettySize=auto;html=1;exitX=0.5;exitY=1;exitDx=0;exitDy=0;entryX=1.02;entryY=0.5;entryDx=0;entryDy=0;entryPerimeter=0;" edge="1" parent="1" source="Jz6pxkjxXAT42NqrhO4k-18" target="Jz6pxkjxXAT42NqrhO4k-23">
          <mxGeometry relative="1" as="geometry">
            <Array as="points">
              <mxPoint x="574" y="910" />
            </Array>
          </mxGeometry>
        </mxCell>
      </root>
    </mxGraphModel>
  </diagram>
</mxfile>
